# xmcd
#
# Track frame offsets: 
#        150
#        23659
#        34169
#        51664
#        62710
#        80230
#        90707
#        102142
#        114182
#        125252
#        137642
#        151200
#        163115
#        176335
#        187841
#        203842
#        217211
#        231454
#        249670
#        261165
#        280169
#        294052
#        309735
#        319395
#        333315
#
# Disc length: 4624 seconds
#
# Revision: 0
# Processed by: cddbd v1.5.2PL0 Copyright (c) Steve Scherf et al.
# Submitted via: ExactAudioCopy v0.99pb4
#
DISCID=6d120e19
DTITLE=John Forgerty - The Long Road Home
DYEAR=2004
DGENRE=Rock and Roll
TTITLE0=Born On the Bayou
TTITLE1=Bad Moon Rising
TTITLE2=CenterField
TTITLE3=Who´ll Stop The Rain
TTITLE4=Rambuctious Boy
TTITLE5=Fortunate Son
TTITLE6=Lookin´n Out My Back Door
TTITLE7=Up Around The Bend
TTITLE8=Almost Saturday Nigth (Live)
TTITLE9=Down on the Corner
TTITLE10=Bootleg (Live)
TTITLE11=Have You Ever Seen The Rain?
TTITLE12=Swwet Hitch-Hicker
TTITLE13=Hey Tonigth (Live)
TTITLE14=The Old Man Down The Road
TTITLE15=Rockin' All Over The World (Live)
TTITLE16=Lodi
TTITLE17=Keep On Chooglin (Live)
TTITLE18=Green River
TTITLE19=Deja Vu (All Over Again)
TTITLE20=Run Through The Jungle
TTITLE21=Hot Rod Heart
TTITLE22=Travelin' Band
TTITLE23=Proud Mary
TTITLE24=Fortunate Son (Live)
EXTD=
EXTT0=
EXTT1=
EXTT2=
EXTT3=
EXTT4=
EXTT5=
EXTT6=
EXTT7=
EXTT8=
EXTT9=
EXTT10=
EXTT11=
EXTT12=
EXTT13=
EXTT14=
EXTT15=
EXTT16=
EXTT17=
EXTT18=
EXTT19=
EXTT20=
EXTT21=
EXTT22=
EXTT23=
EXTT24=
PLAYORDER=
